<svg xmlns="http://www.w3.org/2000/svg" width="20" height="20" viewBox="10.5 9.5 10 10" version="1.0"><defs><g/><clipPath id="37b7d321bb"><path d="M 1 5 L 8.910156 5 L 8.910156 11 L 1 11 Z M 1 5 " clip-rule="nonzero"/></clipPath><clipPath id="5d6821c204"><rect x="0" width="9" y="0" height="17"/></clipPath><clipPath id="b08821912e"><path d="M 0.289062 5 L 4.839844 5 L 4.839844 11 L 0.289062 11 Z M 0.289062 5 " clip-rule="nonzero"/></clipPath><clipPath id="16f8d826ba"><rect x="0" width="5" y="0" height="17"/></clipPath></defs><g transform="matrix(1, 0, 0, 1, 11, 7)"><g clip-path="url(#5d6821c204)"><g clip-path="url(#37b7d321bb)"><g fill="#ced0d6" fill-opacity="1"><g transform="translate(1.643958, 10.392267)"><g><path d="M 0.078125 -5.328125 L 2.390625 -5.328125 C 2.148438 -5.285156 1.976562 -5.234375 1.875 -5.171875 C 1.78125 -5.109375 1.734375 -5.019531 1.734375 -4.90625 C 1.734375 -4.84375 1.742188 -4.773438 1.765625 -4.703125 C 1.785156 -4.640625 1.8125 -4.566406 1.84375 -4.484375 L 3.484375 -0.53125 L 5.140625 -4.484375 C 5.171875 -4.566406 5.195312 -4.640625 5.21875 -4.703125 C 5.238281 -4.773438 5.25 -4.84375 5.25 -4.90625 C 5.25 -5.019531 5.195312 -5.109375 5.09375 -5.171875 C 5 -5.234375 4.832031 -5.285156 4.59375 -5.328125 L 6.921875 -5.328125 C 6.734375 -5.265625 6.585938 -5.195312 6.484375 -5.125 C 6.390625 -5.0625 6.304688 -4.972656 6.234375 -4.859375 C 6.171875 -4.742188 6.097656 -4.578125 6.015625 -4.359375 L 4.171875 0 L 2.828125 0 L 0.96875 -4.359375 C 0.882812 -4.578125 0.804688 -4.742188 0.734375 -4.859375 C 0.671875 -4.972656 0.585938 -5.0625 0.484375 -5.125 C 0.390625 -5.195312 0.253906 -5.265625 0.078125 -5.328125 Z M 0.078125 -5.328125 "/></g></g></g></g></g></g><g transform="matrix(1, 0, 0, 1, 11, 7)"><g clip-path="url(#16f8d826ba)"><g clip-path="url(#b08821912e)"><g fill="#ced0d6" fill-opacity="1"><g transform="translate(0.601999, 10.465676)"><g><path d="M 0.078125 -0.15625 L 0.078125 -1.0625 C 0.078125 -1.0625 0.101562 -1.019531 0.15625 -0.9375 C 0.207031 -0.863281 0.304688 -0.785156 0.453125 -0.703125 C 0.597656 -0.617188 0.796875 -0.578125 1.046875 -0.578125 C 1.316406 -0.578125 1.519531 -0.640625 1.65625 -0.765625 C 1.800781 -0.898438 1.875 -1.09375 1.875 -1.34375 L 1.875 -4.46875 C 1.875 -4.6875 1.851562 -4.851562 1.8125 -4.96875 C 1.78125 -5.082031 1.710938 -5.164062 1.609375 -5.21875 C 1.515625 -5.28125 1.367188 -5.335938 1.171875 -5.390625 L 3.453125 -5.390625 C 3.253906 -5.335938 3.101562 -5.28125 3 -5.21875 C 2.90625 -5.164062 2.835938 -5.082031 2.796875 -4.96875 C 2.765625 -4.851562 2.75 -4.6875 2.75 -4.46875 L 2.75 -1.203125 C 2.75 -0.796875 2.625 -0.476562 2.375 -0.25 C 2.132812 -0.03125 1.800781 0.078125 1.375 0.078125 C 1.050781 0.078125 0.789062 0.0546875 0.59375 0.015625 C 0.40625 -0.0234375 0.269531 -0.0625 0.1875 -0.09375 C 0.113281 -0.132812 0.078125 -0.15625 0.078125 -0.15625 Z M 0.078125 -0.15625 "/></g></g></g></g></g></g></svg>
