<svg xmlns="http://www.w3.org/2000/svg" width="12" height="12" viewBox="11 11 8 8" version="1.0"><defs><clipPath id="a"><path d="M 11.257812 11.226562 L 18.742188 11.226562 L 18.742188 18.710938 L 11.257812 18.710938 Z" clip-rule="nonzero"/></clipPath><clipPath id="b"><path d="M 12.269531 12.238281 L 17.507812 12.238281 L 17.507812 17.476562 L 12.269531 17.476562 Z" clip-rule="nonzero"/></clipPath><clipPath id="c"><path d="M 13.167969 13.136719 L 16.910156 13.136719 L 16.910156 16.875 L 13.167969 16.875 Z" clip-rule="nonzero"/></clipPath></defs><g clip-path="url(#a)"><path fill="#fbc02d" d="M 14.980469 11.238281 C 12.9375 11.238281 11.28125 12.917969 11.28125 14.988281 C 11.28125 17.054688 12.941406 18.738281 14.980469 18.738281 C 17.019531 18.738281 18.683594 17.054688 18.683594 14.988281 C 18.683594 12.917969 17.023438 11.238281 14.980469 11.238281 Z M 14.980469 17.988281 C 13.355469 17.988281 12.03125 16.640625 12.03125 14.992188 C 12.03125 13.339844 13.355469 11.992188 14.980469 11.992188 C 16.605469 11.992188 17.929688 13.339844 17.929688 14.992188 C 17.929688 16.640625 16.605469 17.988281 14.980469 17.988281 Z" fill-opacity="1" fill-rule="nonzero"/></g><g clip-path="url(#b)"><path fill="#fbc02d" d="M 14.984375 12.246094 C 13.496094 12.246094 12.285156 13.472656 12.285156 14.980469 C 12.285156 16.492188 13.496094 17.71875 14.984375 17.71875 C 16.472656 17.71875 17.683594 16.492188 17.683594 14.980469 C 17.683594 13.472656 16.476562 12.246094 14.984375 12.246094 Z M 14.984375 17.171875 C 13.800781 17.171875 12.832031 16.1875 12.832031 14.984375 C 12.832031 13.777344 13.800781 12.796875 14.984375 12.796875 C 16.171875 12.796875 17.136719 13.777344 17.136719 14.984375 C 17.136719 16.1875 16.171875 17.171875 14.984375 17.171875 Z" fill-opacity="1" fill-rule="nonzero"/></g><g clip-path="url(#c)"><path fill="#fbc02d" d="M 14.988281 13.140625 C 13.988281 13.140625 13.175781 13.960938 13.175781 14.972656 C 13.175781 15.984375 13.992188 16.808594 14.988281 16.808594 C 15.984375 16.808594 16.796875 15.984375 16.796875 14.972656 C 16.796875 13.960938 15.984375 13.140625 14.988281 13.140625 Z M 14.988281 16.441406 C 14.191406 16.441406 13.546875 15.785156 13.546875 14.976562 C 13.546875 14.167969 14.191406 13.511719 14.988281 13.511719 C 15.78125 13.511719 16.429688 14.167969 16.429688 14.976562 C 16.429688 15.785156 15.78125 16.441406 14.988281 16.441406 Z" fill-opacity="1" fill-rule="nonzero"/></g></svg>
